REM DIRINDEX 1\2,1\3,1\4,1\5\6,1\5\7,1\8
REM DIRNAME cjc115,folder01,folder02,folder03,folder04,folder05,folder06,folder07
TITLE ""
FILE "002 Åy002ÅzUnit1 (0013 species_0024 confirm).mp3" MP3
  TRACK 01 AUDIO
    TITLE "0:"
    INDEX 01 00:00:00
  TRACK 02 AUDIO
    TITLE "2:cjc115_0038"
    INDEX 01 00:00:07
  TRACK 03 AUDIO
    TITLE "0:"
    INDEX 01 00:01:40
  TRACK 04 AUDIO
    TITLE "3:cjc115_0039"
    INDEX 01 00:01:46
  TRACK 05 AUDIO
    TITLE "0:"
    INDEX 01 00:03:12
  TRACK 06 AUDIO
    TITLE "4:cjc115_0040"
    INDEX 01 00:03:19
  TRACK 07 AUDIO
    TITLE "0:"
    INDEX 01 00:07:09
  TRACK 08 AUDIO
    TITLE "2:cjc115_0041"
    INDEX 01 00:08:19
  TRACK 09 AUDIO
    TITLE "0:"
    INDEX 01 00:09:30
  TRACK 10 AUDIO
    TITLE "3:cjc115_0042"
    INDEX 01 00:09:42
  TRACK 11 AUDIO
    TITLE "0:"
    INDEX 01 00:10:70
  TRACK 12 AUDIO
    TITLE "4:cjc115_0043"
    INDEX 01 00:11:03
  TRACK 13 AUDIO
    TITLE "0:"
    INDEX 01 00:15:17
  TRACK 14 AUDIO
    TITLE "2:cjc115_0044"
    INDEX 01 00:16:28
  TRACK 15 AUDIO
    TITLE "0:"
    INDEX 01 00:17:59
  TRACK 16 AUDIO
    TITLE "3:cjc115_0045"
    INDEX 01 00:17:69
  TRACK 17 AUDIO
    TITLE "0:"
    INDEX 01 00:19:01
  TRACK 18 AUDIO
    TITLE "4:cjc115_0046"
    INDEX 01 00:19:11
  TRACK 19 AUDIO
    TITLE "0:"
    INDEX 01 00:22:68
  TRACK 20 AUDIO
    TITLE "2:cjc115_0047"
    INDEX 01 00:24:04
  TRACK 21 AUDIO
    TITLE "0:"
    INDEX 01 00:25:45
  TRACK 22 AUDIO
    TITLE "3:cjc115_0048"
    INDEX 01 00:25:52
  TRACK 23 AUDIO
    TITLE "0:"
    INDEX 01 00:27:34
  TRACK 24 AUDIO
    TITLE "4:cjc115_0049"
    INDEX 01 00:27:38
  TRACK 25 AUDIO
    TITLE "0:"
    INDEX 01 00:32:37
  TRACK 26 AUDIO
    TITLE "2:cjc115_0050"
    INDEX 01 00:33:46
  TRACK 27 AUDIO
    TITLE "0:"
    INDEX 01 00:34:69
  TRACK 28 AUDIO
    TITLE "3:cjc115_0051"
    INDEX 01 00:34:73
  TRACK 29 AUDIO
    TITLE "0:"
    INDEX 01 00:36:19
  TRACK 30 AUDIO
    TITLE "4:cjc115_0052"
    INDEX 01 00:36:27
  TRACK 31 AUDIO
    TITLE "0:"
    INDEX 01 00:40:09
  TRACK 32 AUDIO
    TITLE "2:cjc115_0053"
    INDEX 01 00:41:18
  TRACK 33 AUDIO
    TITLE "0:"
    INDEX 01 00:42:49
  TRACK 34 AUDIO
    TITLE "3:cjc115_0054"
    INDEX 01 00:42:61
  TRACK 35 AUDIO
    TITLE "0:"
    INDEX 01 00:45:26
  TRACK 36 AUDIO
    TITLE "4:cjc115_0055"
    INDEX 01 00:45:33
  TRACK 37 AUDIO
    TITLE "0:"
    INDEX 01 00:51:09
  TRACK 38 AUDIO
    TITLE "2:cjc115_0056"
    INDEX 01 00:52:22
  TRACK 39 AUDIO
    TITLE "0:"
    INDEX 01 00:53:47
  TRACK 40 AUDIO
    TITLE "3:cjc115_0057"
    INDEX 01 00:53:51
  TRACK 41 AUDIO
    TITLE "0:"
    INDEX 01 00:56:10
  TRACK 42 AUDIO
    TITLE "4:cjc115_0058"
    INDEX 01 00:56:18
  TRACK 43 AUDIO
    TITLE "0:"
    INDEX 01 00:59:67
  TRACK 44 AUDIO
    TITLE "2:cjc115_0059"
    INDEX 01 01:01:01
  TRACK 45 AUDIO
    TITLE "0:"
    INDEX 01 01:02:32
  TRACK 46 AUDIO
    TITLE "3:cjc115_0060"
    INDEX 01 01:02:40
  TRACK 47 AUDIO
    TITLE "0:"
    INDEX 01 01:04:37
  TRACK 48 AUDIO
    TITLE "4:cjc115_0061"
    INDEX 01 01:04:47
  TRACK 49 AUDIO
    TITLE "0:"
    INDEX 01 01:07:31
  TRACK 50 AUDIO
    TITLE "2:cjc115_0062"
    INDEX 01 01:08:48
  TRACK 51 AUDIO
    TITLE "0:"
    INDEX 01 01:10:10
  TRACK 52 AUDIO
    TITLE "3:cjc115_0063"
    INDEX 01 01:10:18
  TRACK 53 AUDIO
    TITLE "0:"
    INDEX 01 01:12:19
  TRACK 54 AUDIO
    TITLE "4:cjc115_0064"
    INDEX 01 01:12:28
  TRACK 55 AUDIO
    TITLE "0:"
    INDEX 01 01:17:04
  TRACK 56 AUDIO
    TITLE "2:cjc115_0065"
    INDEX 01 01:18:13
  TRACK 57 AUDIO
    TITLE "0:"
    INDEX 01 01:19:44
  TRACK 58 AUDIO
    TITLE "3:cjc115_0066"
    INDEX 01 01:19:46
  TRACK 59 AUDIO
    TITLE "0:"
    INDEX 01 01:20:51
  TRACK 60 AUDIO
    TITLE "4:cjc115_0067"
    INDEX 01 01:20:59
  TRACK 61 AUDIO
    TITLE "0:"
    INDEX 01 01:25:11
  TRACK 62 AUDIO
    TITLE "2:cjc115_0068"
    INDEX 01 01:26:19
  TRACK 63 AUDIO
    TITLE "0:"
    INDEX 01 01:27:36
  TRACK 64 AUDIO
    TITLE "3:cjc115_0069"
    INDEX 01 01:27:46
  TRACK 65 AUDIO
    TITLE "0:"
    INDEX 01 01:29:48
  TRACK 66 AUDIO
    TITLE "4:cjc115_0070"
    INDEX 01 01:29:56
  TRACK 67 AUDIO
    TITLE "0:"
    INDEX 01 01:34:24
  TRACK 68 AUDIO
    TITLE "2:cjc115_0071"
    INDEX 01 01:35:31
  TRACK 69 AUDIO
    TITLE "0:"
    INDEX 01 01:36:58
  TRACK 70 AUDIO
    TITLE "3:cjc115_0072"
    INDEX 01 01:36:68
  TRACK 71 AUDIO
    TITLE "0:"
    INDEX 01 01:39:19
  TRACK 72 AUDIO
    TITLE "4:cjc115_0073"
    INDEX 01 01:39:29
  TRACK 73 AUDIO
    TITLE "0:"
    INDEX 01 01:44:23
